<svg width="96" height="27" viewBox="0 0 96 27" fill="none" xmlns="http://www.w3.org/2000/svg">
<g clip-path="url(#clip0_34_7)">
<path d="M19.4795 4.25967H19.4532C18.8921 4.25967 18.3913 4.66131 18.2648 5.21882L16.2517 14.3793C16.1697 14.7249 16.0357 14.7701 15.9092 14.7701C15.7169 14.7701 15.6086 14.6714 15.5348 14.4251L13.5323 6.25767C13.1422 4.69888 12.2913 3.9408 10.9131 3.9408C9.54258 3.9408 8.64405 4.72561 8.26461 6.27414L6.23328 14.4168C6.18827 14.6256 6.06177 14.7542 5.91708 14.7542C5.70865 14.7542 5.61656 14.6632 5.54523 14.3608L3.45827 5.18125C3.33179 4.62378 2.84205 4.23294 2.28047 4.23294H2.23595C1.86409 4.23294 1.51905 4.39648 1.28176 4.69888C1.04752 4.9884 0.965561 5.36331 1.04752 5.72742L3.16078 14.8802C3.5033 16.3588 4.52831 17.2428 5.90646 17.2428C7.25019 17.2428 8.14622 16.4313 8.49933 14.9069L10.5575 6.6408C10.6232 6.3384 10.7679 6.30345 10.8762 6.30345C11.0659 6.30345 11.1737 6.40269 11.2476 6.64905L13.2794 14.9177C13.6401 16.4498 14.5386 17.2613 15.8722 17.2613C17.2317 17.2613 18.2567 16.3747 18.5916 14.8987L20.668 5.74648C20.7494 5.38182 20.6598 5.00691 20.4332 4.71481C20.1964 4.42321 19.8509 4.25967 19.4795 4.25967Z" fill="#253342"/>
<path d="M24.2676 9.31146C24.7947 7.63179 26.3257 6.41035 28.2017 6.41035C30.062 6.41035 31.5747 7.63179 32.0912 9.31146H24.2676ZM28.2123 4.0426C24.4755 4.0426 21.5664 6.97557 21.5664 10.5786C21.5664 14.2054 24.4573 17.1594 28.2123 17.1594C29.5798 17.1594 30.8234 16.7686 31.8646 16.0856C32.5734 15.6197 32.6179 14.607 31.9461 14.0979L31.9303 14.0794C31.5221 13.7688 30.958 13.742 30.5335 14.0419C29.8803 14.497 29.0921 14.7624 28.2199 14.7624C26.352 14.7624 24.8286 13.5594 24.2939 11.9178H33.606C34.2597 11.9178 34.7944 11.3902 34.8132 10.734V10.5786C34.8132 7.00539 31.9648 4.0426 28.2123 4.0426Z" fill="#253342"/>
<path d="M53.3905 9.09985L53.3723 9.08388C52.945 8.56394 52.1839 8.48116 51.6591 8.90954L45.1478 14.2612C44.5684 14.5801 43.9066 14.7621 43.1902 14.7621C40.8505 14.7621 39.0558 12.8768 39.0558 10.6051C39.0558 8.30682 40.8604 6.42145 43.1902 6.42145C43.7882 6.42145 44.3521 6.54692 44.8503 6.77731L46.8526 5.12749C45.8198 4.44196 44.5604 4.05058 43.1902 4.05058C41.6489 4.05058 40.2442 4.55151 39.1298 5.40058V1.63447C39.1298 0.924754 38.5576 0.348755 37.8487 0.348755H37.8224C37.1161 0.348755 36.5444 0.924754 36.5444 1.63447V10.6134C36.5631 14.2242 39.4458 17.1597 43.1902 17.1597C44.5236 17.1597 45.7462 16.7766 46.7714 16.1312L46.7813 16.1203C46.8158 16.0936 46.8526 16.0751 46.8898 16.0478L46.8815 16.0401L53.219 10.8248C53.7354 10.3964 53.8174 9.61925 53.3905 9.09985Z" fill="#253342"/>
<path d="M95.269 4.71517C95.0341 4.42303 94.6892 4.26003 94.3284 4.26003H94.2992C93.738 4.26003 93.2401 4.66168 93.1107 5.21865L91.1 14.3796C91.0188 14.7252 90.8815 14.7705 90.7551 14.7705C90.5654 14.7705 90.4546 14.6712 90.3836 14.4249L88.3783 6.25803C87.9882 4.69921 87.1371 3.94116 85.759 3.94116C84.3891 3.94116 83.4929 4.72597 83.1112 6.27396L81.0792 14.4172C81.0447 14.5884 80.9263 14.7545 80.7632 14.7545C80.5552 14.7545 80.4626 14.6635 80.3917 14.3606L78.3074 5.18112C78.1784 4.62415 77.6904 4.23326 77.1269 4.23326H77.0818C76.7107 4.23326 76.365 4.3963 76.1309 4.69921C75.8933 4.98826 75.8121 5.36317 75.8933 5.72779L78.0069 14.8805C78.3518 16.3591 79.3774 17.2426 80.7556 17.2426C82.0965 17.2426 82.992 16.4311 83.3483 14.9073L85.4061 6.65709C85.4691 6.35728 85.6144 6.31975 85.7221 6.31975C85.9119 6.31975 86.0227 6.42158 86.094 6.66789L88.1252 14.9366C88.4891 16.4661 89.3849 17.2776 90.7183 17.2776C92.0783 17.2776 93.1031 16.3936 93.4374 14.9181L95.4876 5.75452C95.5878 5.38219 95.5062 5.00728 95.269 4.71517Z" fill="#00A9FA"/>
<path d="M64.4523 9.31146C64.9763 7.63179 66.5104 6.41035 68.3864 6.41035C70.2468 6.41035 71.7593 7.63179 72.2761 9.31146H64.4523ZM68.397 4.0426C64.6602 4.0426 61.751 6.97557 61.751 10.5786C61.751 14.2054 64.642 17.1594 68.397 17.1594C69.7645 17.1594 71.008 16.7686 72.0492 16.0856C72.758 15.6197 72.8027 14.607 72.1307 14.0979L72.1125 14.0794C71.7069 13.7688 71.1427 13.742 70.7181 14.0419C70.065 14.497 69.2743 14.7624 68.4046 14.7624C66.5366 14.7624 65.0135 13.5594 64.4784 11.9178H73.6641C74.3994 11.9178 75.0054 11.3259 75.0054 10.5972V10.5786C74.9872 7.00539 72.1493 4.0426 68.397 4.0426Z" fill="#00A9FA"/>
<path d="M59.9358 1.63471C59.9358 0.924998 59.3666 0.348999 58.6578 0.348999H58.6316C57.9251 0.348999 57.3537 0.924998 57.3537 1.63471V5.38181C56.2389 4.5435 54.8315 4.03181 53.2905 4.03181C51.6855 4.03181 50.255 4.57027 49.1295 5.47334H49.1189L43.9516 9.72133C43.4348 10.1497 43.3536 10.916 43.7805 11.4437L43.7987 11.4622C44.2233 11.9822 44.9845 12.0649 45.5119 11.6366L51.0162 7.11236C51.6593 6.66752 52.4391 6.41036 53.3004 6.41036C55.6378 6.41036 57.4349 8.29882 57.4349 10.5972C57.4349 12.8662 55.6302 14.7541 53.3004 14.7541C52.6736 14.7541 52.0938 14.6179 51.5667 14.3715L49.556 16.0106C50.6079 16.7311 51.8934 17.1517 53.3004 17.1517C57.0448 17.1517 59.9278 14.2054 59.9464 10.6054V1.63471H59.9358Z" fill="#00A9FA"/>
<path d="M95.411 19.9183L94.5212 20.5997C94.4832 20.629 94.4904 20.6897 94.5344 20.7087L95.5597 21.151C95.6045 21.1701 95.6519 21.1335 95.6458 21.0852L95.5104 19.961C95.5043 19.9126 95.4497 19.889 95.411 19.9183Z" fill="black"/>
<path d="M94.7085 22.6881L94.1128 22.4623L94.7753 20.7354L95.3801 20.9796L94.7085 22.6881Z" fill="black"/>
<path d="M22.4266 25.3359H18.3174L19.602 21.4037H23.7111L22.4266 25.3359Z" fill="#00A9FA"/>
<g opacity="0.5">
<mask id="mask0_34_7" style="mask-type:luminance" maskUnits="userSpaceOnUse" x="12" y="21" width="6" height="5">
<g opacity="0.5">
<path d="M12.3081 25.3359H17.7016V21.4039H12.3081V25.3359Z" fill="white"/>
</g>
</mask>
<g mask="url(#mask0_34_7)">
<path d="M16.4172 25.3358H12.3081L13.5926 21.4036H17.7018L16.4172 25.3358Z" fill="#00A9FA"/>
</g>
</g>
<g opacity="0.190002">
<mask id="mask1_34_7" style="mask-type:luminance" maskUnits="userSpaceOnUse" x="6" y="21" width="6" height="5">
<g opacity="0.190002">
<path d="M6.29932 25.3359H11.6928V21.4039H6.29932V25.3359Z" fill="white"/>
</g>
</mask>
<g mask="url(#mask1_34_7)">
<path d="M10.4085 25.3358H6.29932L7.58386 21.4036H11.693L10.4085 25.3358Z" fill="#00A9FA"/>
</g>
</g>
<g opacity="0.0700073">
<mask id="mask2_34_7" style="mask-type:luminance" maskUnits="userSpaceOnUse" x="0" y="21" width="6" height="5">
<g opacity="0.0700073">
<path d="M0.290527 25.3359H5.68409V21.4039H0.290527V25.3359Z" fill="white"/>
</g>
</mask>
<g mask="url(#mask2_34_7)">
<path d="M4.3997 25.3358H0.290527L1.57508 21.4036H5.68424L4.3997 25.3358Z" fill="#00A9FA"/>
</g>
</g>
<path d="M27.1038 25.358C26.6818 25.358 26.3231 25.2644 26.0282 25.0777C25.7327 24.8915 25.538 24.6241 25.4438 24.2759L26.1385 23.9581C26.1956 24.1746 26.3181 24.3412 26.5068 24.4575C26.695 24.5737 26.9358 24.6318 27.2288 24.6318C27.422 24.6318 27.6006 24.602 27.7645 24.5444C27.9285 24.4868 28.0666 24.3983 28.1789 24.2795C28.2912 24.1612 28.3615 24.0188 28.3899 23.8521C28.4222 23.6654 28.3969 23.523 28.315 23.4243C28.232 23.3266 28.1126 23.253 27.9543 23.2052C27.7964 23.1573 27.6213 23.1157 27.4286 23.0807C27.247 23.0401 27.0633 22.9907 26.8776 22.9326C26.6915 22.875 26.5235 22.7927 26.3727 22.6868C26.2225 22.5814 26.1111 22.441 26.0393 22.2666C25.9675 22.0928 25.9548 21.8726 26.0003 21.6047C26.0494 21.3224 26.1683 21.0699 26.358 20.8482C26.5473 20.6266 26.781 20.4512 27.0588 20.3226C27.3365 20.194 27.634 20.1298 27.9517 20.1298C28.3342 20.1298 28.6661 20.2192 28.9474 20.3982C29.2292 20.5772 29.4149 20.8405 29.5039 21.1892L28.8138 21.5219C28.7561 21.31 28.6408 21.145 28.4673 21.0262C28.2942 20.9079 28.0711 20.8482 27.7984 20.8482C27.6295 20.8482 27.4721 20.8796 27.3244 20.9428C27.1772 21.0056 27.0517 21.092 26.9485 21.2C26.8453 21.3085 26.7815 21.436 26.7562 21.5821C26.7249 21.7636 26.7532 21.9035 26.8402 22.0022C26.9272 22.1005 27.0522 22.1761 27.2141 22.229C27.3765 22.2825 27.5561 22.3283 27.7524 22.3689C27.934 22.4101 28.1161 22.4584 28.2998 22.5171C28.484 22.5746 28.6469 22.6564 28.79 22.7624C28.9327 22.8683 29.0405 23.0087 29.1123 23.1825C29.1837 23.3564 29.1963 23.577 29.1503 23.8444C29.0992 24.1422 28.9752 24.4035 28.7774 24.6277C28.5801 24.8524 28.3352 25.0299 28.0418 25.161C27.7488 25.2927 27.4362 25.358 27.1038 25.358Z" fill="black"/>
<path d="M31.4034 25.3731C31.1059 25.3731 30.8631 25.3124 30.6759 25.1915C30.4882 25.0701 30.3597 24.9025 30.2893 24.6886C30.22 24.4736 30.2094 24.2257 30.258 23.9429L30.8327 20.6057H31.5698L30.9992 23.9202C30.9572 24.1624 30.9905 24.3517 31.0983 24.4875C31.2061 24.6243 31.3695 24.6921 31.5881 24.6921C31.7069 24.6921 31.8304 24.6721 31.9594 24.632C32.0879 24.5909 32.2023 24.5379 32.3029 24.4726L32.1841 25.1612C32.0793 25.2219 31.9569 25.2723 31.8157 25.3124C31.6751 25.353 31.5375 25.3731 31.4034 25.3731ZM32.6915 22.2179H29.833L29.9453 21.5674H32.8033L32.6915 22.2179Z" fill="black"/>
<path d="M34.8545 24.6544C35.0827 24.6544 35.2977 24.5993 35.5006 24.4877C35.704 24.3766 35.8735 24.227 36.0101 24.0377C36.1472 23.8485 36.2342 23.6427 36.2727 23.4211C36.3116 23.1938 36.2955 22.987 36.2231 22.8009C36.1513 22.6142 36.0334 22.4635 35.869 22.3509C35.705 22.2367 35.5087 22.1796 35.2805 22.1796C35.0524 22.1796 34.8378 22.2367 34.637 22.3509C34.4362 22.4635 34.2667 22.6142 34.1275 22.8009C33.9889 22.987 33.8999 23.1938 33.8609 23.4211C33.8224 23.6427 33.8407 23.8485 33.915 24.0377C33.9889 24.227 34.1068 24.3766 34.2692 24.4877C34.4311 24.5993 34.6264 24.6544 34.8545 24.6544ZM34.6203 25.3656C34.2677 25.3656 33.9692 25.2772 33.7243 25.1002C33.4794 24.9239 33.3029 24.6883 33.1951 24.3931C33.0869 24.0984 33.0636 23.7718 33.1258 23.4129C33.1865 23.0601 33.3276 22.7366 33.5492 22.4409C33.7719 22.1462 34.0435 21.9112 34.3668 21.7373C34.6896 21.563 35.0342 21.4761 35.402 21.4761C35.7693 21.4761 36.0845 21.5609 36.348 21.7296C36.6116 21.8988 36.8044 22.1297 36.9248 22.4218C37.0457 22.715 37.0746 23.0452 37.0113 23.4129L36.6906 25.2746H35.9909L36.2292 23.8901L36.516 23.6932C36.4624 24.0059 36.3455 24.2887 36.1654 24.5402C35.9853 24.7932 35.7627 24.9938 35.4966 25.1419C35.2294 25.2911 34.9375 25.3656 34.6203 25.3656Z" fill="black"/>
<path d="M38.4848 25.2745H37.748L38.1285 23.0652C38.1805 22.7623 38.2829 22.4928 38.4351 22.2552C38.588 22.0186 38.7838 21.8319 39.0225 21.6956C39.2623 21.5593 39.5404 21.4919 39.8584 21.4919C39.9775 21.4919 40.0906 21.5027 40.1987 21.5254C40.3065 21.548 40.4033 21.582 40.4898 21.6277L40.3615 22.3693C40.2822 22.3138 40.1938 22.2732 40.0967 22.2479C39.9988 22.2223 39.9009 22.2104 39.8015 22.2104C39.5582 22.2104 39.3522 22.2891 39.1837 22.4485C39.0145 22.6074 38.9067 22.8229 38.8601 23.0955L38.4848 25.2745Z" fill="black"/>
<path d="M42.2708 25.3731C41.9733 25.3731 41.7305 25.3124 41.5434 25.1915C41.3556 25.0701 41.2274 24.9025 41.1568 24.6886C41.0877 24.4736 41.0771 24.2257 41.1257 23.9429L41.7001 20.6057H42.4374L41.8667 23.9202C41.8246 24.1624 41.858 24.3517 41.9658 24.4875C42.0735 24.6243 42.2371 24.6921 42.4556 24.6921C42.5744 24.6921 42.6981 24.6721 42.8271 24.632C42.9554 24.5909 43.0699 24.5379 43.1705 24.4726L43.0517 25.1612C42.947 25.2219 42.8244 25.2723 42.6833 25.3124C42.5425 25.353 42.4052 25.3731 42.2708 25.3731ZM43.5591 22.2179H40.7007L40.813 21.5674H43.671L43.5591 22.2179Z" fill="black"/>
<path d="M44.5165 25.3429C44.4322 25.3429 44.3563 25.3213 44.2888 25.2786C44.222 25.2354 44.1727 25.1762 44.1412 25.1001C44.1093 25.025 44.1017 24.9417 44.1169 24.8507C44.1336 24.755 44.17 24.6717 44.2273 24.6013C44.2839 24.5308 44.3537 24.4737 44.4353 24.4315C44.5172 24.3883 44.5999 24.3672 44.6846 24.3672C44.7737 24.3672 44.8504 24.3883 44.9153 24.4315C44.9801 24.4737 45.0287 24.5308 45.061 24.6013C45.094 24.6717 45.1016 24.755 45.0853 24.8507C45.0697 24.9417 45.0333 25.025 44.9748 25.1001C44.9172 25.1762 44.8489 25.2354 44.7696 25.2786C44.6895 25.3213 44.6056 25.3429 44.5165 25.3429ZM44.2766 26.6892H43.7856L44.373 24.8816L45.0382 24.9947L44.2766 26.6892Z" fill="black"/>
<path d="M50.0018 20.8484L49.7293 22.4293H50.7417C51.1587 22.4293 51.4718 22.3625 51.6808 22.2293C51.8899 22.0956 52.0189 21.8878 52.0675 21.6049C52.1107 21.3524 52.0421 21.1637 51.8599 21.0372C51.6782 20.9112 51.4016 20.8484 51.0286 20.8484H50.0018ZM49.6185 23.0727L49.3499 24.6315H50.3402C50.5137 24.6315 50.6795 24.6202 50.8373 24.5976C50.9952 24.5744 51.1371 24.5353 51.2634 24.4803C51.3894 24.4248 51.4968 24.344 51.5837 24.2381C51.6717 24.1321 51.7305 23.9933 51.7598 23.8215C51.8068 23.5494 51.7374 23.3566 51.5507 23.2429C51.364 23.1298 51.0582 23.0727 50.6309 23.0727H49.6185ZM50.1923 25.2744H48.481L49.3537 20.2056H51.1026C51.7127 20.2056 52.173 20.3228 52.4822 20.5573C52.7919 20.7919 52.9099 21.1231 52.8359 21.552C52.7877 21.8292 52.6841 22.0637 52.5247 22.255C52.3654 22.4473 52.1654 22.5913 51.9256 22.6865C51.6858 22.7832 51.4148 22.8305 51.1117 22.8305L51.1394 22.6721C51.452 22.6721 51.7203 22.7112 51.9449 22.7888C52.1699 22.8675 52.3331 22.9946 52.434 23.1714C52.5353 23.3473 52.5608 23.5818 52.5099 23.8745C52.4651 24.1378 52.3733 24.3579 52.2363 24.5369C52.0986 24.7164 51.9263 24.8599 51.7192 24.9684C51.512 25.0769 51.2782 25.1551 51.0195 25.2029C50.7607 25.2512 50.4852 25.2744 50.1923 25.2744Z" fill="black"/>
<path d="M55.0732 24.6387C55.3012 24.6387 55.5034 24.5801 55.6807 24.4613C55.8571 24.3425 56.002 24.1851 56.1151 23.9881C56.2289 23.7917 56.3048 23.5793 56.3439 23.3525L56.6517 21.5669H57.3885L57.0653 23.444C57.0038 23.802 56.8782 24.126 56.6896 24.4155C56.5006 24.7061 56.2585 24.9365 55.9633 25.1083C55.6685 25.2795 55.3297 25.3654 54.9476 25.3654C54.5708 25.3654 54.2657 25.2785 54.0327 25.1042C53.7997 24.9298 53.6381 24.6984 53.5497 24.4083C53.4605 24.1183 53.4468 23.7937 53.5087 23.4358L53.8301 21.5669H54.567L54.2585 23.3602C54.2205 23.5819 54.224 23.7917 54.2695 23.9881C54.3146 24.1851 54.4046 24.3425 54.5378 24.4613C54.6713 24.5801 54.85 24.6387 55.0732 24.6387Z" fill="black"/>
<path d="M59.0555 20.8334C58.9709 20.8334 58.8958 20.8118 58.8282 20.7691C58.7611 20.7259 58.7121 20.6673 58.6806 20.5911C58.6487 20.5155 58.6411 20.4322 58.6563 20.3412C58.6719 20.2502 58.7083 20.1674 58.7667 20.0918C58.8244 20.0157 58.8942 19.9555 58.9766 19.9102C59.0585 19.8645 59.1416 19.8419 59.2259 19.8419C59.3154 19.8419 59.3924 19.8645 59.4566 19.9102C59.5203 19.9555 59.5674 20.0157 59.5962 20.0918C59.6258 20.1674 59.6323 20.2502 59.6167 20.3412C59.6008 20.4322 59.5659 20.5155 59.5105 20.5911C59.4551 20.6673 59.3879 20.7259 59.3086 20.7691C59.2289 20.8118 59.1451 20.8334 59.0555 20.8334ZM58.5641 21.5673H59.301L58.6628 25.2748H57.9263L58.5641 21.5673Z" fill="black"/>
<path d="M60.9048 19.8646H61.6417L60.7101 25.2748H59.9736L60.9048 19.8646Z" fill="black"/>
<path d="M63.726 24.6619C63.9541 24.6619 64.1692 24.6048 64.373 24.4917C64.576 24.378 64.746 24.2278 64.8818 24.0411C65.0184 23.855 65.1061 23.6477 65.1452 23.4209C65.1835 23.1987 65.1668 22.9935 65.0955 22.8043C65.0237 22.6155 64.9057 22.4653 64.7407 22.3543C64.5764 22.2432 64.3802 22.1876 64.1518 22.1876C63.9237 22.1876 63.7093 22.2432 63.5094 22.3543C63.3086 22.4653 63.139 22.6155 62.9998 22.8043C62.8609 22.9935 62.7717 23.1987 62.7338 23.4209C62.6943 23.6477 62.7125 23.855 62.7869 24.0411C62.8613 24.2278 62.9793 24.378 63.1409 24.4917C63.3026 24.6048 63.4976 24.6619 63.726 24.6619ZM63.6046 25.3654C63.2373 25.3654 62.9231 25.277 62.6606 25.1005C62.398 24.9242 62.2067 24.6896 62.0853 24.397C61.9647 24.1044 61.9343 23.7814 61.9958 23.4286C62.0603 23.0496 62.1999 22.7148 62.4147 22.4221C62.6287 22.1295 62.8935 21.8986 63.2108 21.7294C63.5276 21.5612 63.8702 21.4764 64.2368 21.4764C64.5297 21.4764 64.7874 21.5453 65.009 21.6847C65.2305 21.823 65.3956 22.0087 65.5053 22.2406C65.6134 22.4726 65.6449 22.7245 65.5982 22.9971L65.2442 22.8007L65.7576 19.8646H66.4949L65.8813 23.4286C65.8183 23.7917 65.6764 24.1208 65.454 24.4155C65.2321 24.7112 64.96 24.9432 64.6382 25.1119C64.3165 25.2811 63.9719 25.3654 63.6046 25.3654Z" fill="black"/>
<path d="M71.828 20.8403C71.6891 20.8403 71.5597 20.8722 71.4394 20.9349C71.3195 20.9987 71.2197 21.0815 71.1396 21.1849C71.0592 21.2883 71.0087 21.4055 70.986 21.5366C70.9567 21.7079 70.9825 21.8874 71.0645 22.0736C71.1465 22.2608 71.2785 22.4624 71.4591 22.6794L73.6023 25.2745H72.5751L70.7795 23.0805C70.6577 22.9242 70.5458 22.7596 70.4437 22.5878C70.342 22.4171 70.2669 22.2381 70.2199 22.0509C70.1728 21.8642 70.1667 21.6678 70.2028 21.4611C70.2468 21.2034 70.3474 20.9745 70.5033 20.7724C70.6596 20.5713 70.8573 20.4104 71.0964 20.2921C71.3351 20.1738 71.5931 20.1141 71.8708 20.1141C72.2484 20.1141 72.5523 20.2067 72.7842 20.3903C73.0149 20.5744 73.175 20.8259 73.2642 21.1432L72.6081 21.4986C72.5527 21.2975 72.4594 21.1365 72.3258 21.0188C72.1922 20.9 72.0268 20.8403 71.828 20.8403ZM70.5974 22.3235L70.9021 22.8455C70.7097 22.8656 70.5306 22.9185 70.3648 23.0049C70.1986 23.0903 70.0597 23.2029 69.9497 23.3413C69.8385 23.4801 69.7683 23.6375 69.738 23.8139C69.7091 23.9805 69.7308 24.1297 69.8021 24.2608C69.8738 24.392 69.9861 24.4964 70.139 24.5745C70.292 24.6527 70.4775 24.6918 70.6957 24.6918C71.0379 24.6918 71.365 24.5997 71.6777 24.4156C71.9892 24.232 72.27 23.9857 72.5189 23.6781C72.7678 23.3706 72.9671 23.0245 73.1181 22.6413L73.71 22.9211C73.5081 23.3757 73.2478 23.7877 72.9314 24.1585C72.6145 24.5293 72.2507 24.8234 71.8416 25.04C71.4318 25.257 70.9841 25.3655 70.4976 25.3655C70.1303 25.3655 69.8214 25.3012 69.571 25.1727C69.3194 25.0441 69.1403 24.8636 69.0311 24.6316C68.9222 24.3997 68.8929 24.1374 68.9434 23.8443C68.9851 23.6025 69.0792 23.3793 69.2257 23.1752C69.3729 22.971 69.5623 22.7956 69.793 22.6496C70.0241 22.5025 70.2923 22.394 70.5974 22.3235Z" fill="black"/>
<path d="M78.8863 25.3656C78.5292 25.3656 78.2094 25.2971 77.9278 25.1614C77.6463 25.0251 77.4091 24.8374 77.2175 24.5977C77.0255 24.3581 76.8927 24.0778 76.8187 23.7574C76.7447 23.4375 76.7394 23.0955 76.802 22.7324C76.8638 22.3745 76.9856 22.0371 77.1689 21.7223C77.3526 21.4071 77.5806 21.1299 77.8523 20.8902C78.1244 20.6506 78.4257 20.4629 78.7569 20.326C79.0878 20.1903 79.4323 20.1219 79.7894 20.1219C80.0622 20.1219 80.3214 20.1666 80.5672 20.2546C80.8124 20.342 81.0256 20.4747 81.2055 20.6516C81.3861 20.8285 81.5181 21.045 81.6039 21.3022L80.9228 21.6652C80.8541 21.4894 80.7577 21.3402 80.6355 21.2189C80.5126 21.098 80.3658 21.0054 80.1954 20.9427C80.0254 20.8794 79.8376 20.8486 79.6346 20.8486C79.3917 20.8486 79.1561 20.8974 78.928 20.9962C78.7004 21.0944 78.4939 21.2297 78.3073 21.4004C78.1221 21.5722 77.9658 21.7743 77.8386 22.0062C77.7115 22.2382 77.6262 22.4855 77.5806 22.7478C77.534 23.0194 77.5351 23.2714 77.5852 23.5002C77.6349 23.7296 77.7214 23.9317 77.8451 24.1055C77.9692 24.2799 78.1304 24.4146 78.33 24.5103C78.5296 24.6059 78.7558 24.6543 79.0089 24.6543C79.2077 24.6543 79.3963 24.6306 79.5754 24.5828C79.7556 24.5345 79.9176 24.4712 80.0622 24.393C80.2075 24.3149 80.3252 24.2279 80.4162 24.1323L80.6264 22.914H81.3633L81.108 24.3971C80.9649 24.5633 80.7828 24.7211 80.5612 24.8698C80.3396 25.0189 80.0854 25.1388 79.7992 25.2287C79.5131 25.3203 79.2092 25.3656 78.8863 25.3656Z" fill="black"/>
<path d="M82.6159 25.2745H81.8794L82.26 23.0652C82.312 22.7623 82.414 22.4928 82.5666 22.2552C82.7191 22.0186 82.9149 21.8319 83.154 21.6956C83.3938 21.5593 83.6719 21.4919 83.9895 21.4919C84.109 21.4919 84.2217 21.5027 84.3302 21.5254C84.438 21.548 84.5344 21.582 84.6209 21.6277L84.493 22.3693C84.4137 22.3138 84.3249 22.2732 84.2278 22.2479C84.1303 22.2223 84.032 22.2104 83.933 22.2104C83.6897 22.2104 83.4837 22.2891 83.3152 22.4485C83.1456 22.6074 83.0378 22.8229 82.9916 23.0955L82.6159 25.2745Z" fill="black"/>
<path d="M86.3627 24.6544C86.5907 24.6544 86.8055 24.5993 87.0058 24.4877C87.2054 24.3766 87.3739 24.227 87.5113 24.0377C87.6479 23.8485 87.7347 23.6427 87.7731 23.4211C87.8121 23.1938 87.7958 22.987 87.7237 22.8009C87.6516 22.6142 87.5348 22.4635 87.3735 22.3509C87.2122 22.2367 87.0168 22.1796 86.7888 22.1796C86.5604 22.1796 86.346 22.2367 86.1452 22.3509C85.9441 22.4635 85.7734 22.6142 85.6326 22.8009C85.4911 22.987 85.4008 23.1938 85.3613 23.4211C85.3234 23.6427 85.3427 23.8485 85.4197 24.0377C85.4956 24.227 85.6148 24.3766 85.7772 24.4877C85.9392 24.5993 86.1346 24.6544 86.3627 24.6544ZM86.2401 25.3656C85.8724 25.3656 85.5582 25.2772 85.2957 25.1002C85.0331 24.9239 84.8403 24.6883 84.7178 24.3931C84.5948 24.0984 84.5645 23.7718 84.6263 23.4129C84.6882 23.0555 84.8308 22.7299 85.0547 22.4368C85.2786 22.1446 85.5518 21.9112 85.8751 21.7373C86.1976 21.563 86.5421 21.4761 86.9102 21.4761C87.2775 21.4761 87.5921 21.563 87.855 21.7373C88.1176 21.9112 88.3081 22.1462 88.4265 22.4409C88.5437 22.7366 88.5726 23.0601 88.5119 23.4129C88.4496 23.7718 88.3096 24.0984 88.0899 24.3931C87.8698 24.6883 87.597 24.9239 87.2718 25.1002C86.9459 25.2772 86.6025 25.3656 86.2401 25.3656Z" fill="black"/>
<path d="M90.1021 25.3731C89.9833 25.3731 89.874 25.3478 89.7765 25.2975C89.6782 25.2471 89.5997 25.171 89.5401 25.0701C89.4806 24.9693 89.4464 24.8433 89.438 24.6921L89.2612 21.5673H89.9541L90.1104 24.5481C90.1123 24.5934 90.1214 24.6279 90.137 24.6505C90.1533 24.6731 90.1806 24.6844 90.2205 24.6844C90.2554 24.6844 90.2835 24.6731 90.3047 24.6505C90.326 24.6279 90.3445 24.5991 90.3609 24.5636L91.3717 22.1495C91.4707 21.9227 91.591 21.754 91.7348 21.6429C91.8775 21.5314 92.046 21.4763 92.2399 21.4763C92.433 21.4763 92.5829 21.5303 92.688 21.6388C92.7931 21.7474 92.8538 21.915 92.869 22.1423L93.0401 24.5636C93.0481 24.6037 93.0602 24.634 93.0766 24.6546C93.0933 24.6747 93.1187 24.6844 93.1536 24.6844C93.1885 24.6844 93.2173 24.6747 93.2405 24.6546C93.2636 24.634 93.2849 24.5991 93.3039 24.5481L94.4642 21.5673H95.1495L93.9186 24.6921C93.8578 24.8433 93.782 24.9693 93.6897 25.0701C93.5983 25.171 93.4959 25.2471 93.3832 25.2975C93.2697 25.3478 93.1513 25.3731 93.0276 25.3731C92.8387 25.3731 92.6922 25.3165 92.5878 25.2028C92.4831 25.0892 92.4228 24.9215 92.4061 24.6993L92.2331 22.2482C92.2296 22.2128 92.2179 22.184 92.1997 22.1608C92.1814 22.1382 92.1549 22.1269 92.1204 22.1269C92.0851 22.1269 92.0562 22.1382 92.0323 22.1608C92.0084 22.184 91.9913 22.2128 91.9803 22.2482L90.9547 24.6993C90.8621 24.9215 90.7441 25.0892 90.6007 25.2028C90.4569 25.3165 90.2903 25.3731 90.1021 25.3731Z" fill="black"/>
</g>
<defs>
<clipPath id="clip0_34_7">
<rect width="96" height="27" fill="white"/>
</clipPath>
</defs>
</svg>
